<?xml version="1.0" encoding="UTF-8"?>
<!DOCTYPE svg PUBLIC "-//W3C//DTD SVG 1.1//EN" "http://www.w3.org/Graphics/SVG/1.1/DTD/svg11.dtd">
<svg xmlns="http://www.w3.org/2000/svg" version="1.1" width="150px" height="150px" style="shape-rendering:geometricPrecision; text-rendering:geometricPrecision; image-rendering:optimizeQuality; fill-rule:evenodd; clip-rule:evenodd" xmlns:xlink="http://www.w3.org/1999/xlink">
<g><path style="opacity:0.98" fill="#010101" d="M 62.5,7.5 C 96.4454,4.2181 121.279,17.5514 137,47.5C 149.068,82.622 140.235,111.122 110.5,133C 90.5887,143.692 69.9221,145.358 48.5,138C 16.1534,122.144 2.65344,96.3106 8,60.5C 15.8683,32.1304 34.0349,14.4637 62.5,7.5 Z"/></g>
<g><path style="opacity:1" fill="#e3e3e3" d="M 74.5,20.5 C 75.4959,20.4142 76.3292,20.7476 77,21.5C 77.4966,23.8098 77.6633,26.1432 77.5,28.5C 92.5238,28.2673 106.524,31.7673 119.5,39C 119,39.5 118.5,40 118,40.5C 105.196,34.424 91.6956,31.0906 77.5,30.5C 77.5,40.1667 77.5,49.8333 77.5,59.5C 86.9725,60.0894 89.9725,64.5894 86.5,73C 83.3949,74.8681 80.0615,76.0348 76.5,76.5C 76.1915,86.5527 76.5248,96.5527 77.5,106.5C 76.0715,114.416 75.2381,122.416 75,130.5C 74.5003,122.841 74.3336,115.174 74.5,107.5C 64.057,107.523 55.2236,103.857 48,96.5C 43.8912,87.1542 45.0579,78.4875 51.5,70.5C 42.2553,59.6015 42.2553,48.7681 51.5,38C 57.5063,32.664 64.5063,29.4973 72.5,28.5C 72.1072,25.4867 72.7739,22.8201 74.5,20.5 Z"/></g>
<g><path style="opacity:1" fill="#090909" d="M 69.5,31.5 C 70.8333,31.5 72.1667,31.5 73.5,31.5C 73.5,40.5 73.5,49.5 73.5,58.5C 65.507,59.1632 58.8404,62.4965 53.5,68.5C 44.7333,57.1011 45.7333,46.6011 56.5,37C 60.7415,34.6512 65.0748,32.8179 69.5,31.5 Z"/></g>
<g><path style="opacity:1" fill="#0c0c0c" d="M 66.5,61.5 C 68.8333,61.5 71.1667,61.5 73.5,61.5C 73.5,65.8333 73.5,70.1667 73.5,74.5C 66.953,74.9599 60.953,73.4599 55.5,70C 59.0667,66.9205 62.7334,64.0871 66.5,61.5 Z"/></g>
<g><path style="opacity:1" fill="#090909" d="M 77.5,61.5 C 81.9952,61.7353 84.9952,63.902 86.5,68C 85.0447,71.5473 82.378,73.3806 78.5,73.5C 77.5166,69.7016 77.1832,65.7016 77.5,61.5 Z"/></g>
<g><path style="opacity:1" fill="#747474" d="M 77.5,61.5 C 77.1832,65.7016 77.5166,69.7016 78.5,73.5C 78.44,74.0431 78.1067,74.3764 77.5,74.5C 76.1889,70.0162 76.1889,65.6829 77.5,61.5 Z"/></g>
<g><path style="opacity:1" fill="#060606" d="M 52.5,72.5 C 55.9083,73.3668 59.2416,74.5335 62.5,76C 66.1516,76.4986 69.8183,76.6653 73.5,76.5C 73.5,85.8333 73.5,95.1667 73.5,104.5C 63.3707,104.966 55.2041,101.299 49,93.5C 47.7235,89.9031 47.3901,86.2364 48,82.5C 49.3218,79.035 50.8218,75.7017 52.5,72.5 Z"/></g>
</svg>
